<?xml version="1.0" encoding="utf-8"?>
<!-- Generator: Adobe Illustrator 24.3.0, SVG Export Plug-In . SVG Version: 6.00 Build 0)  -->
<svg version="1.1" id="Capa_1" xmlns="http://www.w3.org/2000/svg" xmlns:xlink="http://www.w3.org/1999/xlink" x="0px" y="0px"
	 viewBox="0 0 38.2 38.2" style="enable-background:new 0 0 38.2 38.2;" xml:space="preserve">
<style type="text/css">
	.st0{fill:#FFFFFF;}
</style>
<g>
	<g id="b164_cuttlery">
		<path class="st0" d="M7.4,4L7,12H5.2L5,3.9H3.7L3.5,12H2L1.3,4H0v8.2l0,0c0.1,2.6,1.4,2.9,3.1,3.6h0v5.5v0v13.4
			c1.5,1.5,2.7,0,2.7,0l0-13.6h0v-5.3c0,0,2.9-1,3-3.6h0l0-8.2L7.4,4L7.4,4z"/>
		<path class="st0" d="M17,3.5h-1.9v31h3.7V18.1h3.2c1.9-8.1-3.2-14.6-3.2-14.6L17,3.5C17,3.5,17,3.5,17,3.5z"/>
		<path class="st0" d="M33.2,2.7c-2.8,0-5,3.4-5,7.5c0,3.3,1.4,6.1,3.4,7.1v17H35V17.3c1.9-1.1,3.3-3.8,3.3-7
			C38.2,6.1,36,2.7,33.2,2.7z"/>
	</g>
	<g id="Capa_1_281_">
	</g>
</g>
</svg>
