<?xml version="1.0" encoding="utf-8"?>
<!-- Generator: Adobe Illustrator 24.3.0, SVG Export Plug-In . SVG Version: 6.00 Build 0)  -->
<svg version="1.1" id="Capa_1" xmlns="http://www.w3.org/2000/svg" xmlns:xlink="http://www.w3.org/1999/xlink" x="0px" y="0px"
	 viewBox="0 0 358.4 358.4" style="enable-background:new 0 0 358.4 358.4;" xml:space="preserve">
<style type="text/css">
	.st0{fill:#FFFFFF;}
</style>
<g>
	<path class="st0" d="M143.2,4.8c-0.4,0-0.9,0-1.3,0.1c-0.4-0.1-0.9-0.2-1.3-0.2L57,0l0,0h0c-4.1-0.2-7.6,2.9-7.9,7c0,0,0,0.1,0,0.1
		c-0.8,14.2-2.9,64.2,2.5,109c5.1,42.1,15.2,65.8,30.8,72l-6,108.6l-18.9-1c-4.1-0.2-7.7,2.9-7.9,7.1s2.9,7.7,7.1,7.9l54.8,3
		c0.1,0,0.3,0,0.4,0c4,0,7.3-3.1,7.5-7.1c0.2-4.1-2.9-7.7-7.1-7.9l-20.9-1.2l6-108.9c14.3-5.1,26.3-27.4,36.5-67.8
		c9.9-39.1,15-82.6,16.4-108.1C150.5,8.5,147.3,5,143.2,4.8z M129.9,62.7l-66.8-7.1c-0.2-16.5,0.3-30.9,0.7-40.2l71,3.9
		C133.9,31.8,132.2,46.9,129.9,62.7z M90.6,174.7C80,174.1,71,151.5,66.5,114.3c-1.7-14.4-2.7-29.4-3.1-43.5l64.1,6.8
		c-2.3,13.4-5,26.9-8.2,39.5C107.7,163.1,95.8,175,90.6,174.7z"/>
	<path class="st0" d="M310.2,336.3c-1-4-5-6.5-9.1-5.5l-20.3,4.9l-25.6-106c12.2-9,17.3-33.8,15.4-75.4
		c-1.8-40.3-9.4-83.5-15.4-108.2c-1-4-5-6.5-9.1-5.5c-0.4,0.1-0.8,0.3-1.2,0.4c-0.4,0-0.9,0.1-1.3,0.2l-81.3,19.7
		c-4,1-6.5,5-5.5,9.1c3.4,13.9,15.7,62.3,33.7,103.6c17,38.8,33.5,58.6,50.2,60l25.6,105.7l-18.4,4.5c-4,1-6.5,5-5.5,9.1
		c0.8,3.4,3.9,5.7,7.3,5.7c0.6,0,1.2-0.1,1.8-0.2L277,352c0,0,0,0,0,0c0,0,0,0,0,0l27.6-6.7C308.7,344.3,311.1,340.3,310.2,336.3z
		 M173.1,73.6l69.2-16.7c2.5,11.3,5,24.9,7.3,39.3l-62,27.1C180.9,103,175.9,84.7,173.1,73.6z M204.2,167.4c-4.3-9.8-8.2-20-11.8-30
		l59.3-25.9c1.9,14.5,3.3,29.3,3.9,43.3c2.1,47.5-5.8,62.2-10.9,63.4C234.3,220.8,219.2,201.8,204.2,167.4z"/>
</g>
</svg>
